<svg id="healthcare" xmlns="http://www.w3.org/2000/svg" xmlns:xlink="http://www.w3.org/1999/xlink" width="672.016" height="448.339" viewBox="0 0 672.016 448.339">
  <defs>
    <clipPath id="clip-path">
      <rect id="Rectangle_439" data-name="Rectangle 439" width="672.016" height="448.339" fill="none"/>
    </clipPath>
  </defs>
  <g id="Group_58" data-name="Group 58" clip-path="url(#clip-path)">
    <path id="Path_3898" data-name="Path 3898" d="M173.889,431.609C270.3,455.8,427.9,458.5,534.27,407.578c98.259-47.029,118.482-219.942,51.049-318.019C537.4,19.86,445.581-7.945,357.541,1.933,253.657,13.587,226.1,85.423,157.164,137.035c-42.893,32.111-130.5,24.211-147.042,117.908C-8.72,361.729,107.327,414.9,173.889,431.609" transform="translate(0.511 0)" fill="rgba(201,235,244,0.31)"/>
    <path id="Path_3900" data-name="Path 3900" d="M591.277,201.848A502.649,502.649,0,0,0,483.64,414.538" transform="translate(30.61 12.775)" fill="none" stroke="#b4efe7" stroke-linecap="round" stroke-miterlimit="10" stroke-width="1"/>
    <path id="Path_3901" data-name="Path 3901" d="M558.98,203.578a94.061,94.061,0,0,1,4.891,27.9,154.982,154.982,0,0,1,30.357-3.456" transform="translate(35.378 12.884)" fill="none" stroke="#b4efe7" stroke-linecap="round" stroke-miterlimit="10" stroke-width="1"/>
    <path id="Path_3902" data-name="Path 3902" d="M525.2,238.548a118.607,118.607,0,0,1,12.813,32.728,165.621,165.621,0,0,1,36.12-3.668" transform="translate(33.24 15.098)" fill="none" stroke="#b4efe7" stroke-linecap="round" stroke-miterlimit="10" stroke-width="1"/>
    <path id="Path_3903" data-name="Path 3903" d="M501.92,289.258a156.546,156.546,0,0,1,12.6,24.158,90.5,90.5,0,0,1,36.269-6.539" transform="translate(31.767 18.307)" fill="none" stroke="#b4efe7" stroke-linecap="round" stroke-miterlimit="10" stroke-width="1"/>
    <path id="Path_3904" data-name="Path 3904" d="M525.71,338.866a76.91,76.91,0,0,0-22.5,1.68,72.246,72.246,0,0,0-8.07-17.268" transform="translate(31.337 20.46)" fill="none" stroke="#b4efe7" stroke-linecap="round" stroke-miterlimit="10" stroke-width="1"/>
    <path id="Path_3906" data-name="Path 3906" d="M630.371,307.688A580.43,580.43,0,0,0,482.85,408.679" transform="translate(30.56 19.474)" fill="none" stroke="#b4efe7" stroke-linecap="round" stroke-miterlimit="10" stroke-width="1"/>
    <path id="Path_3907" data-name="Path 3907" d="M603.469,296.968a91.449,91.449,0,0,1-2.169,22.691,38.945,38.945,0,0,1,20.607,8.411" transform="translate(38.056 18.795)" fill="none" stroke="#b4efe7" stroke-linecap="round" stroke-miterlimit="10" stroke-width="1"/>
    <path id="Path_3908" data-name="Path 3908" d="M568.96,312.848a114.383,114.383,0,0,1,1.659,24.328,61.7,61.7,0,0,1,28.5,10.069" transform="translate(36.01 19.8)" fill="none" stroke="#b4efe7" stroke-linecap="round" stroke-miterlimit="10" stroke-width="1"/>
    <path id="Path_3909" data-name="Path 3909" d="M536.42,336.518a44.828,44.828,0,0,1,3.807,20.086,60.432,60.432,0,0,1,26.6,8.6" transform="translate(33.95 21.298)" fill="none" stroke="#b4efe7" stroke-linecap="round" stroke-miterlimit="10" stroke-width="1"/>
    <rect id="Rectangle_421" data-name="Rectangle 421" width="152.05" height="15.949" transform="translate(391.418 257.644)" fill="#f2cdbf"/>
    <path id="Path_3910" data-name="Path 3910" d="M515.417,257.308V412.739H501.945v-8.506h-116.2v8.506H372.33V257.308Z" transform="translate(23.565 16.285)" fill="#f2cdbf"/>
    <rect id="Rectangle_422" data-name="Rectangle 422" width="143.076" height="3.19" transform="translate(395.895 273.593)" fill="#d4a59b"/>
    <rect id="Rectangle_423" data-name="Rectangle 423" width="114.038" height="34.557" transform="translate(410.207 287.522)" fill="#d4a59b"/>
    <rect id="Rectangle_424" data-name="Rectangle 424" width="116.377" height="34.557" transform="translate(409.037 284.332)" fill="#faded2"/>
    <rect id="Rectangle_425" data-name="Rectangle 425" width="114.038" height="34.557" transform="translate(410.207 331.117)" fill="#d4a59b"/>
    <rect id="Rectangle_426" data-name="Rectangle 426" width="116.377" height="34.557" transform="translate(409.037 327.927)" fill="#faded2"/>
    <rect id="Rectangle_427" data-name="Rectangle 427" width="114.038" height="34.557" transform="translate(410.207 374.712)" fill="#d4a59b"/>
    <rect id="Rectangle_428" data-name="Rectangle 428" width="116.377" height="34.557" transform="translate(409.037 371.522)" fill="#faded2"/>
    <path id="Path_3911" data-name="Path 3911" d="M403.2,236.458v-24.19h6.646v24.19a2.922,2.922,0,0,1-2.924,2.924h-.8a2.922,2.922,0,0,1-2.924-2.924" transform="translate(25.519 13.434)" fill="#fff"/>
    <path id="Path_3912" data-name="Path 3912" d="M402.07,211.594h0a.769.769,0,0,1,.766-.766h7.517a.766.766,0,1,1,0,1.531h-7.517a.776.776,0,0,1-.766-.766" transform="translate(25.447 13.343)" fill="#fff"/>
    <path id="Path_3913" data-name="Path 3913" d="M404.2,235.59V219.768h4.519V235.59a2.259,2.259,0,0,1-4.519,0" transform="translate(25.582 13.909)" fill="#f0d3d8"/>
    <path id="Path_3914" data-name="Path 3914" d="M415.7,236.458v-24.19h6.646v24.19a2.922,2.922,0,0,1-2.924,2.924h-.8a2.922,2.922,0,0,1-2.924-2.924" transform="translate(26.31 13.434)" fill="#fff"/>
    <path id="Path_3915" data-name="Path 3915" d="M414.57,211.594h0a.769.769,0,0,1,.766-.766h7.517a.766.766,0,1,1,0,1.531h-7.517a.776.776,0,0,1-.766-.766" transform="translate(26.238 13.343)" fill="#fff"/>
    <path id="Path_3916" data-name="Path 3916" d="M416.7,235.59V219.768h4.519V235.59a2.259,2.259,0,0,1-4.519,0" transform="translate(26.373 13.909)" fill="#f0d3d8"/>
    <path id="Path_3917" data-name="Path 3917" d="M428.95,236.458v-24.19H435.6v24.19a2.922,2.922,0,0,1-2.924,2.924h-.8a2.922,2.922,0,0,1-2.924-2.924" transform="translate(27.148 13.434)" fill="#fff"/>
    <path id="Path_3918" data-name="Path 3918" d="M427.82,211.594h0a.769.769,0,0,1,.766-.766H436.1a.766.766,0,1,1,0,1.531h-7.517a.776.776,0,0,1-.766-.766" transform="translate(27.077 13.343)" fill="#fff"/>
    <path id="Path_3919" data-name="Path 3919" d="M429.95,235.59V219.768h4.519V235.59a2.259,2.259,0,0,1-4.519,0" transform="translate(27.212 13.909)" fill="#f0d3d8"/>
    <path id="Path_3920" data-name="Path 3920" d="M442.45,236.458v-24.19H449.1v24.19a2.922,2.922,0,0,1-2.924,2.924h-.8a2.922,2.922,0,0,1-2.924-2.924" transform="translate(28.003 13.434)" fill="#fff"/>
    <path id="Path_3921" data-name="Path 3921" d="M441.32,211.594h0a.769.769,0,0,1,.766-.766H449.6a.766.766,0,1,1,0,1.531h-7.517a.776.776,0,0,1-.766-.766" transform="translate(27.931 13.343)" fill="#fff"/>
    <path id="Path_3922" data-name="Path 3922" d="M443.45,235.59V219.768h4.519V235.59a2.26,2.26,0,0,1-4.519,0" transform="translate(28.066 13.909)" fill="#f0d3d8"/>
    <path id="Path_3923" data-name="Path 3923" d="M456.95,236.458v-24.19H463.6v24.19a2.922,2.922,0,0,1-2.924,2.924h-.8a2.922,2.922,0,0,1-2.924-2.924" transform="translate(28.92 13.434)" fill="#fff"/>
    <path id="Path_3924" data-name="Path 3924" d="M455.82,211.594h0a.769.769,0,0,1,.766-.766H464.1a.766.766,0,1,1,0,1.531h-7.517a.776.776,0,0,1-.766-.766" transform="translate(28.849 13.343)" fill="#fff"/>
    <path id="Path_3925" data-name="Path 3925" d="M457.95,235.59V219.768h4.519V235.59a2.259,2.259,0,0,1-4.519,0" transform="translate(28.984 13.909)" fill="#f0d3d8"/>
    <rect id="Rectangle_429" data-name="Rectangle 429" width="81.873" height="2.127" transform="translate(422.147 227.095)" fill="#a7c2d9"/>
    <rect id="Rectangle_430" data-name="Rectangle 430" width="91.443" height="5.316" transform="translate(417.862 252.327)" fill="#d49ba0"/>
    <rect id="Rectangle_431" data-name="Rectangle 431" width="2.329" height="30.804" transform="translate(421.488 224.171)" fill="#d49ba0"/>
    <rect id="Rectangle_432" data-name="Rectangle 432" width="2.329" height="30.804" transform="translate(502.628 224.171)" fill="#d49ba0"/>
    <path id="Path_3926" data-name="Path 3926" d="M83.7,323.754A121.516,121.516,0,0,0,109.392,237.2,120.632,120.632,0,0,0,66.6,156.828a599.55,599.55,0,0,1-2.818,68.114c-2.116,21.521-5.37,43.531-.223,64.542A66.077,66.077,0,0,0,83.7,323.754" transform="translate(3.849 9.926)" fill="#007c9d"/>
    <path id="Path_3927" data-name="Path 3927" d="M81.2,350.534c0-76.057,20.181-100.608-9.389-180.876" transform="translate(4.545 10.738)" fill="none" stroke="#b4efe7" stroke-linecap="round" stroke-miterlimit="10" stroke-width="1"/>
    <path id="Path_3928" data-name="Path 3928" d="M86.118,182.068q-3.094,6.6-6.188,13.217a32.194,32.194,0,0,0-11.76-3.211" transform="translate(4.314 11.523)" fill="none" stroke="#b4efe7" stroke-linecap="round" stroke-miterlimit="10" stroke-width="1"/>
    <path id="Path_3929" data-name="Path 3929" d="M65.68,225.6a51.865,51.865,0,0,1,22.255,6.05,71.98,71.98,0,0,1,15.949-14.525" transform="translate(4.157 13.742)" fill="none" stroke="#b4efe7" stroke-linecap="round" stroke-miterlimit="10" stroke-width="1"/>
    <path id="Path_3930" data-name="Path 3930" d="M64.85,260.482a35.569,35.569,0,0,1,22.287,5.7A98.544,98.544,0,0,1,108.7,248.988" transform="translate(4.104 15.758)" fill="none" stroke="#b4efe7" stroke-linecap="round" stroke-miterlimit="10" stroke-width="1"/>
    <path id="Path_3931" data-name="Path 3931" d="M68.16,288.821a24.891,24.891,0,0,1,15.407,7.7,66.882,66.882,0,0,1,15.216-14.971" transform="translate(4.314 17.819)" fill="none" stroke="#b4efe7" stroke-linecap="round" stroke-miterlimit="10" stroke-width="1"/>
    <path id="Path_3932" data-name="Path 3932" d="M95.752,320.274s-16.375-35.822,4.6-75.026c11.59-21.659,36.63-48.018,67.859-70.06,0,0-14.865,80.916-33.334,114.75-14.227,26.072-39.129,30.336-39.129,30.336" transform="translate(5.675 11.088)" fill="#007c9d"/>
    <path id="Path_3933" data-name="Path 3933" d="M157.281,189.918c-32.26,51.825-55.227,108.371-73.441,166.543" transform="translate(5.306 12.02)" fill="none" stroke="#b4efe7" stroke-linecap="round" stroke-miterlimit="10" stroke-width="1"/>
    <path id="Path_3934" data-name="Path 3934" d="M133.61,201.988a86.151,86.151,0,0,1,4.625,13.95,133.748,133.748,0,0,1,16.577-2.084" transform="translate(8.456 12.784)" fill="none" stroke="#b4efe7" stroke-linecap="round" stroke-miterlimit="10" stroke-width="1"/>
    <path id="Path_3935" data-name="Path 3935" d="M109.51,232.568a87.827,87.827,0,0,1,10.856,20.819,92.4,92.4,0,0,1,27.125-8.23" transform="translate(6.931 14.719)" fill="none" stroke="#b4efe7" stroke-linecap="round" stroke-miterlimit="10" stroke-width="1"/>
    <path id="Path_3936" data-name="Path 3936" d="M95.34,258.428a72.949,72.949,0,0,1,12.324,23.86,148.212,148.212,0,0,1,29.921-9.027" transform="translate(6.034 16.356)" fill="none" stroke="#b4efe7" stroke-linecap="round" stroke-miterlimit="10" stroke-width="1"/>
    <path id="Path_3937" data-name="Path 3937" d="M91.5,289.548a129.537,129.537,0,0,1,8.964,11.2,97.433,97.433,0,0,1,22.063-6.146" transform="translate(5.791 18.326)" fill="none" stroke="#b4efe7" stroke-linecap="round" stroke-miterlimit="10" stroke-width="1"/>
    <path id="Path_3938" data-name="Path 3938" d="M70.549,326.6s14.195-20.128,3.7-55.036C59.874,223.737,0,189.818,0,189.818s16.056,65.435,28.581,98.035C41.266,320.837,70.549,326.6,70.549,326.6" transform="translate(0 12.014)" fill="#007c9d"/>
    <path id="Path_3939" data-name="Path 3939" d="M73.777,343.6S65.611,277.781,7.46,198.438" transform="translate(0.472 12.559)" fill="none" stroke="#b4efe7" stroke-linecap="round" stroke-miterlimit="10" stroke-width="1"/>
    <path id="Path_3940" data-name="Path 3940" d="M28.226,211.488A45.79,45.79,0,0,0,24.856,223.9a45.711,45.711,0,0,0-12.526-1.723" transform="translate(0.78 13.385)" fill="none" stroke="#b4efe7" stroke-linecap="round" stroke-miterlimit="10" stroke-width="1"/>
    <path id="Path_3941" data-name="Path 3941" d="M20.06,254.22a54.242,54.242,0,0,1,23.828,1.669,43.063,43.063,0,0,1,9.623-19.341" transform="translate(1.27 14.971)" fill="none" stroke="#b4efe7" stroke-linecap="round" stroke-miterlimit="10" stroke-width="1"/>
    <path id="Path_3942" data-name="Path 3942" d="M69.961,266.078a62.3,62.3,0,0,0-12.409,20.468,36.011,36.011,0,0,0-24.062-1.531" transform="translate(2.12 16.84)" fill="none" stroke="#b4efe7" stroke-linecap="round" stroke-miterlimit="10" stroke-width="1"/>
    <path id="Path_3943" data-name="Path 3943" d="M49.41,309.2a47.542,47.542,0,0,1,15.715-.213A36.37,36.37,0,0,1,72.739,297.8" transform="translate(3.127 18.848)" fill="none" stroke="#b4efe7" stroke-linecap="round" stroke-miterlimit="10" stroke-width="1"/>
    <path id="Path_3944" data-name="Path 3944" d="M122.34,323.668,120.1,336.321l-2.456,13.918-1.3,7.294-2.456,13.929-6.55,37.077H59.51l-6.677-37.077-2.509-13.929-1.308-7.294L46.5,336.321,44.22,323.668Z" transform="translate(2.799 20.485)" fill="#007c9d"/>
    <path id="Path_3945" data-name="Path 3945" d="M119.961,335.568,117.5,349.486H48.88l-2.52-13.918Z" transform="translate(2.934 21.238)" fill="#136d94"/>
    <path id="Path_3946" data-name="Path 3946" d="M115.98,355.518l-2.456,13.929H52.469L49.96,355.518Z" transform="translate(3.162 22.501)" fill="#136d94"/>
    <rect id="Rectangle_433" data-name="Rectangle 433" width="78.333" height="7.284" transform="translate(133.858 409.62)" fill="#326894"/>
    <path id="Path_3947" data-name="Path 3947" d="M139.725,322.077a4.841,4.841,0,0,1-.043.553l-1.212,10.037L127.636,422.1a4.265,4.265,0,0,1-4.753,3.8,4.339,4.339,0,0,1-3.743-4.328,4.842,4.842,0,0,1,.043-.553l10.7-88.349,1.34-11.111a4.265,4.265,0,0,1,8.506.521" transform="translate(7.54 20.109)" fill="#4d8ab3"/>
    <path id="Path_3948" data-name="Path 3948" d="M139.085,322.077a4.837,4.837,0,0,1-.043.553l-1.212,10.037H129.25l1.34-11.111a4.259,4.259,0,0,1,8.5.521" transform="translate(8.18 20.109)" fill="#326894"/>
    <path id="Path_3949" data-name="Path 3949" d="M168.246,321.369V421.594a4.305,4.305,0,0,1-4.253,4.37,4.187,4.187,0,0,1-3.009-1.287,4.408,4.408,0,0,1-1.244-3.094V321.358a4.312,4.312,0,0,1,4.253-4.37A4.15,4.15,0,0,1,167,318.275a4.466,4.466,0,0,1,1.244,3.094" transform="translate(10.11 20.062)" fill="#4d8ab3"/>
    <path id="Path_3950" data-name="Path 3950" d="M166.993,318.284a4.381,4.381,0,0,1,1.244,3.094v11.335H159.72V321.378a4.312,4.312,0,0,1,4.253-4.37,4.106,4.106,0,0,1,3.02,1.276" transform="translate(10.109 20.063)" fill="#326894"/>
    <path id="Path_3951" data-name="Path 3951" d="M209.225,421.549a4.325,4.325,0,0,1-3.732,4.338,4.28,4.28,0,0,1-4.753-3.8L189.9,332.658l-1.212-10.037a4.838,4.838,0,0,1-.043-.553,4.347,4.347,0,0,1,3.743-4.328,4.286,4.286,0,0,1,4.753,3.8l1.34,11.111L209.182,421a3.4,3.4,0,0,1,.043.553" transform="translate(11.94 20.108)" fill="#4d8ab3"/>
    <path id="Path_3952" data-name="Path 3952" d="M198.5,332.658h-8.581L188.7,322.62a4.838,4.838,0,0,1-.043-.553,4.347,4.347,0,0,1,3.743-4.328,4.286,4.286,0,0,1,4.753,3.8Z" transform="translate(11.94 20.108)" fill="#326894"/>
    <path id="Path_3953" data-name="Path 3953" d="M221.147,311.013v2.839a8.98,8.98,0,0,1-8.985,8.985H131.735a8.98,8.98,0,0,1-8.985-8.985v-2.839a8.98,8.98,0,0,1,8.985-8.985h80.427a8.974,8.974,0,0,1,8.985,8.985" transform="translate(7.769 19.115)" fill="#994403"/>
    <path id="Path_3954" data-name="Path 3954" d="M220.705,311.013v2.839a8.98,8.98,0,0,1-8.985,8.985H138.715a8.98,8.98,0,0,1-8.985-8.985v-2.839a8.98,8.98,0,0,1,8.985-8.985H211.72a8.974,8.974,0,0,1,8.985,8.985" transform="translate(8.211 19.115)" fill="#852e03"/>
    <path id="Path_3955" data-name="Path 3955" d="M137.411,142.656c-1.01,2.063-2.031,4.136-2.935,6.125-.617,3.551-.255,7.188,0,10.792s.4,7.273-.606,10.75-3.36,6.752-6.826,8.081c-2.254.861-4.944.925-6.688,2.563-1.978,1.861-1.84,4.987-1.116,7.56a11.748,11.748,0,0,0,3.275,5.806c1.712,1.5,4.466,2.477,6.337,1.393a4.575,4.575,0,0,1,5.646,1.34c1.34,1.637,1.967,3.753,3.286,5.412a10.655,10.655,0,0,0,8.081,3.658c3.073.074,6.348-.361,8.4-1.637,4.391-2.754,9.867-4.583,14.365-2,2.371,1.361,4.243,3.53,6.805,4.508a8.362,8.362,0,0,0,6.773-.415c2.052-1.085,2.839-3.4,4.126-5.178,2.361-3.254,8.081-.627,12.036-1.7a8.682,8.682,0,0,0,6.093-9.963c-.989-4.157-5.593-5.635-9.7-6.252-2.818-.425-3.977-4.009-4.625-6.688a29.754,29.754,0,0,1-.415-8.251c.245-5.625,2.807-18.746,1.18-20.511a27.229,27.229,0,0,0-5.2-3.785q-8.007-3.652-16.013-7.315c-4.859-2.222-9.952-4.487-15.322-4.338-5.359.117-13.11,2.212-16.959,10.048" transform="translate(7.516 8.392)" fill="#732d02"/>
    <path id="Path_3956" data-name="Path 3956" d="M155.277,189.688s-23.69,3.743-26.2,12.132,11.877,67.094,11.877,67.094l53.228-3.254s3.87-67.668-4.593-71.91-34.312-4.062-34.312-4.062" transform="translate(8.151 12.005)" fill="#ebf5ff"/>
    <path id="Path_3957" data-name="Path 3957" d="M174.9,192.832s-3.456,11.771-9.729,14.344-19.979-13.121-19.979-13.121c2.765-1.754,3.807-5.976,4.147-9.825a42.812,42.812,0,0,0-.043-7.422l19.033,3.658c-.489,5.891,1.244,8.985,3.062,10.612a6.95,6.95,0,0,0,3.509,1.754" transform="translate(9.189 11.19)" fill="#fbbd9a"/>
    <path id="Path_3958" data-name="Path 3958" d="M171.145,191.087c-9.038,1.191-17.225-3.339-22.053-6.848a42.813,42.813,0,0,0-.043-7.422l19.033,3.658c-.5,5.88,1.244,8.985,3.062,10.612" transform="translate(9.433 11.191)" fill="#f0997f"/>
    <path id="Path_3959" data-name="Path 3959" d="M223.852,401.609c-2.052,3.413-37.672-18.544-37.672-22.329,0-2.467,4.647-6.039,7.879-8.209,1.733-1.17,3.052-1.946,3.052-1.946l8.315-3.817,3.743,2.01c5.455,9.4,10.665,19.192,13.27,26.008,1.552,4.019,2.18,7.018,1.414,8.283" transform="translate(11.783 23.12)" fill="#d43226"/>
    <path id="Path_3960" data-name="Path 3960" d="M221.979,393.316c-10.208.425-23.7-16.088-28.379-22.255,1.733-1.17,3.052-1.946,3.052-1.946l8.315-3.817,3.743,2.01c5.465,9.4,10.665,19.192,13.27,26.008" transform="translate(12.253 23.12)" fill="#f0997f"/>
    <path id="Path_3961" data-name="Path 3961" d="M188.363,265.858s64.839,8.209,67.04,24.807S214.733,380.5,214.733,380.5l-15.418-4.019,20.117-65.477L167.81,289.1l10.282-23.243Z" transform="translate(10.621 16.826)" fill="#002a42"/>
    <path id="Path_3962" data-name="Path 3962" d="M209.032,403.389c-2.052,3.413-37.672-18.544-37.672-22.329,0-2.467,4.647-6.039,7.879-8.209,1.733-1.17,3.052-1.946,3.052-1.946l8.315-3.817,3.743,2.01c5.455,9.4,10.665,19.192,13.27,26.008,1.552,4.019,2.18,7.018,1.414,8.283" transform="translate(10.845 23.233)" fill="#eb4a2a"/>
    <path id="Path_3963" data-name="Path 3963" d="M207.159,395.1c-10.208.425-23.7-16.088-28.379-22.255,1.733-1.17,3.052-1.946,3.052-1.946l8.315-3.817,3.743,2.01c5.465,9.4,10.665,19.192,13.27,26.008" transform="translate(11.315 23.232)" fill="#fbbd9a"/>
    <path id="Path_3964" data-name="Path 3964" d="M136.088,260.953s-22.467,44.424,17.066,49.22c28.719,3.488,47.752,2.786,48.348,4.381.978,2.563-18.682,64.595-18.682,64.595l19.363,6.125s40.075-86.073,37.9-93.57c-1.8-6.167-57.1-15.577-57.1-15.577,4.657-2.212,8.081-10.261,7.581-20.638Z" transform="translate(8.211 16.17)" fill="#06384f"/>
    <path id="Path_3965" data-name="Path 3965" d="M141.961,257.008s-12.887,28.358-2.573,39.863c12.153,13.557,65.307,9.187,69.008,13.982,2.967,3.838-20.532,66.541-20.532,66.541" transform="translate(8.569 16.266)" fill="none" stroke="#27788f" stroke-linecap="round" stroke-miterlimit="10" stroke-width="1"/>
    <line id="Line_10" data-name="Line 10" x2="18.735" y2="5.71" transform="translate(192.594 392.713)" fill="none" stroke="#27788f" stroke-linecap="round" stroke-miterlimit="10" stroke-width="1"/>
    <path id="Path_3966" data-name="Path 3966" d="M182.141,157.6c4.569-.518,8.579,1.768,8.957,5.106s-3.019,6.463-7.588,6.98-8.579-1.768-8.957-5.106,3.019-6.463,7.588-6.981" transform="translate(11.046 9.97)" fill="#f0997f"/>
    <path id="Path_3967" data-name="Path 3967" d="M139.15,159.037c0-15.769,10.016-28.549,23.467-28.549s24.36,12.781,24.36,28.549-6.879,29.336-19.543,29.825c-12.759.489-28.284-14.067-28.284-29.825" transform="translate(8.807 8.259)" fill="#fbbd9a"/>
    <path id="Path_3968" data-name="Path 3968" d="M140.38,162.527a28.392,28.392,0,0,0,14.833-15.609c3.5,3.945,8.6,6.178,13.78,7.145s10.495.787,15.471.649a9.355,9.355,0,0,1,3.126,5.391,31.744,31.744,0,0,0-1.457-13.961q-20.1-6.125-39.948-13c-1.978,9.431-3.955,18.863-5.806,29.389" transform="translate(8.885 8.426)" fill="#f0997f"/>
    <path id="Path_3969" data-name="Path 3969" d="M152.405,140.224c2.882,5.433,8.453,9.049,14.312,10.92s12.09,2.169,18.32,2.35a41.3,41.3,0,0,1,1.18,10.941,38.04,38.04,0,0,0,3.456-13.344c.053-1.191.053-2.4.021-3.679-.308-8.676-3.9-13.61-8.719-17.31a27.282,27.282,0,0,0-16.832-5.274c-6.008,0-9.825,1.361-12.111,3.732a9.172,9.172,0,0,0-1.871,2.871c-.978,2.3.117,4.8,2.244,8.793" transform="translate(9.481 7.9)" fill="#8c4206"/>
    <path id="Path_3970" data-name="Path 3970" d="M133.419,164.679c-.2-7.709-.691-20.9,2.414-27.21,2.031-4.126,5.869-7.56,10.431-8.177s9.6,2.212,10.654,6.688A53.672,53.672,0,0,1,142.33,163.3c-2.552,1.233-6.316,2.052-8.91,1.382" transform="translate(8.434 8.178)" fill="#8c4206"/>
    <path id="Path_3971" data-name="Path 3971" d="M151.89,128.57a30.535,30.535,0,0,1,25.966,5.231,33.5,33.5,0,0,1,11.686,17.3c.053-1.191.053-2.4.021-3.679-.308-8.676-3.9-13.61-8.719-17.31a27.282,27.282,0,0,0-16.832-5.274c-6.018,0-9.835,1.361-12.121,3.732" transform="translate(9.613 7.901)" fill="#a66317"/>
    <path id="Path_3972" data-name="Path 3972" d="M130.745,163.044c.833-3.254,5.12-4.968,9.574-3.828s7.391,4.7,6.557,7.958-5.119,4.968-9.574,3.827-7.39-4.7-6.557-7.957" transform="translate(8.266 10.054)" fill="#fbbd9a"/>
    <path id="Path_3973" data-name="Path 3973" d="M162.145,162.838c.7,0,1.265.9,1.265,2.02s-.567,2.02-1.265,2.02-1.265-.9-1.265-2.02.567-2.02,1.265-2.02" transform="translate(10.182 10.306)" fill="#2f344d"/>
    <path id="Path_3974" data-name="Path 3974" d="M178.7,162.848c.7,0,1.265.9,1.265,2.02s-.567,2.02-1.265,2.02-1.265-.9-1.265-2.02.567-2.02,1.265-2.02" transform="translate(11.23 10.307)" fill="#2f344d"/>
    <path id="Path_3975" data-name="Path 3975" d="M175.14,155.913a8.844,8.844,0,0,1,7.39.893" transform="translate(11.085 9.841)" fill="none" stroke="#8c4206" stroke-linecap="round" stroke-miterlimit="10" stroke-width="2"/>
    <path id="Path_3976" data-name="Path 3976" d="M163.612,155.714c-2.371-1.053-6.72-.829-8.772,1.51" transform="translate(9.8 9.817)" fill="none" stroke="#8c4206" stroke-linecap="round" stroke-miterlimit="10" stroke-width="2"/>
    <path id="Path_3977" data-name="Path 3977" d="M170.572,163.588a11.125,11.125,0,0,1-.542,6.5" transform="translate(10.761 10.354)" fill="none" stroke="#d45e4e" stroke-linecap="round" stroke-miterlimit="10" stroke-width="2"/>
    <path id="Path_3978" data-name="Path 3978" d="M169.662,175.78c-2.807.553-7.89-1.053-9.272-3.392" transform="translate(10.151 10.91)" fill="none" stroke="#d45e4e" stroke-linecap="round" stroke-miterlimit="10" stroke-width="2"/>
    <path id="Path_3979" data-name="Path 3979" d="M178.62,198.959l9.5-5.731s8.007.681,13.429,10.644c5.391,9.91,15.545,41.947,18.746,43.361s42.213,1.914,42.213,1.914l.532,11.43s-47.784,7.581-53.483,4.445S185.4,224.935,185.4,224.935Z" transform="translate(11.305 12.229)" fill="#fbbd9a"/>
    <path id="Path_3980" data-name="Path 3980" d="M178.07,197.789l1.829-6.4s10.484.447,15.843,4.647,9.75,15.62,9.75,15.62l-13.631,22.01Z" transform="translate(11.27 12.113)" fill="#de3b26"/>
    <path id="Path_3981" data-name="Path 3981" d="M193.28,239.864s14.642-12.643,16.9-15.8c1.116-1.563,9.038,16.843,7.7,19.1-2.137,3.594-15.482,12.228-16.226,11.728s-8.368-15.024-8.368-15.024" transform="translate(12.233 14.175)" fill="#163649"/>
    <path id="Path_3982" data-name="Path 3982" d="M189.715,229.416q6.619-10.511,13.227-21.011a3.343,3.343,0,0,1,.883-1.042c1.1-.734,2.69.17,3.137,1.4a6.52,6.52,0,0,1-.213,3.892c1.414-.223,2.69,1.159,2.86,2.573a7.074,7.074,0,0,1-1.106,4.083,38.11,38.11,0,0,1-19.012,17.278c-.372-2.4-1.106-5.072.223-7.177" transform="translate(11.959 13.107)" fill="#b82621"/>
    <path id="Path_3983" data-name="Path 3983" d="M251.84,248.218c5.465-3.838,16.034-11.452,16.832-11.813.936-.425,7.358-.457,10.856.6s6.752,3.466,8.017,6.911c.351.968.447,2.254-.4,2.818a1.817,1.817,0,0,1-1.893-.1,7.112,7.112,0,0,1-1.457-1.372c-2.339-2.541-4.455-3.541-8.294-3.753,4.551.691,7.443,3.5,8.8,7.922.266.883.372,2-.34,2.573a1.781,1.781,0,0,1-2.02-.064,6.947,6.947,0,0,1-1.478-1.574,15.5,15.5,0,0,0-6.4-4.8A11.344,11.344,0,0,1,280.7,254.2a3.088,3.088,0,0,1-.1,1.648,1.277,1.277,0,0,1-1.3.829,1.938,1.938,0,0,1-1.021-.734c-1.893-2.137-3.381-4.413-5.9-5.944,2.3,3.062,4.232,8.038,3.753,9.336-.149.393-1.127,1.074-2.222-.011-1.244-1.244-2.116-3.371-4.051-5.742a14.262,14.262,0,0,1-13.472,4.317c-1.563-3.275-3.094-6.56-4.551-9.687" transform="translate(15.939 14.945)" fill="#fbbd9a"/>
    <path id="Path_3984" data-name="Path 3984" d="M261.17,243.141a111.684,111.684,0,0,1,11.856-3.541,4.711,4.711,0,0,1,1.627-.191,1.67,1.67,0,0,1,1.329.84,1.615,1.615,0,0,1-.245,1.595,4.283,4.283,0,0,1-1.3,1.085,54.677,54.677,0,0,1-5.38,2.85,7.843,7.843,0,0,1-5.189,6.295" transform="translate(16.53 15.151)" fill="#fbbd9a"/>
    <path id="Path_3985" data-name="Path 3985" d="M261.17,243.141a111.684,111.684,0,0,1,11.856-3.541,4.711,4.711,0,0,1,1.627-.191,1.67,1.67,0,0,1,1.329.84,1.615,1.615,0,0,1-.245,1.595,4.283,4.283,0,0,1-1.3,1.085,54.677,54.677,0,0,1-5.38,2.85,7.843,7.843,0,0,1-5.189,6.295" transform="translate(16.53 15.151)" fill="none" stroke="#d45e4e" stroke-linecap="round" stroke-miterlimit="10" stroke-width="1"/>
    <path id="Path_3986" data-name="Path 3986" d="M170.131,190.428c2.275,1.978,3.753,13.121,4.923,20.2,1.754,10.612,10.686,56.748,11.218,60.012.946,5.763,19.192,5.37,19.926,2.361.138-.553-5.327-3.094-6.2-6.773-.776-3.3-6.837-67.53-9.761-70.911-3.86-4.466-20.84-5.529-20.107-4.891" transform="translate(10.766 12.042)" fill="#eb4a2a"/>
    <path id="Path_3987" data-name="Path 3987" d="M147.927,190.418c1.9.681,7.879,13.376,10.718,25,5.933,24.275,2.4,60.32,0,65.084s-25.689,6.858-29.645,5.593c-2.3-.734-4.8-73.4-3.211-82.522,1.063-6.082,21.563-13.355,22.138-13.153" transform="translate(7.93 12.051)" fill="#eb4a2a"/>
    <path id="Path_3988" data-name="Path 3988" d="M179.458,267.076c4.912-1.8,19.129-5.54,21.1-5.338a7.344,7.344,0,0,1,5.274,2.573,11.246,11.246,0,0,1,1.563,3.722l1.818,6.38a5.629,5.629,0,0,1,.319,2.286,1.732,1.732,0,0,1-1.361,1.584c-1.021.085-1.659-1.138-2.031-2.169-.957-2.648-1.914-5.3-2.86-7.89.627,3.264,1.244,6.539,1.871,9.8a5.624,5.624,0,0,1,.117,2.339,1.742,1.742,0,0,1-1.51,1.467c-1.085-.021-1.606-1.414-1.85-2.563a70.606,70.606,0,0,0-1.935-7.645,21.819,21.819,0,0,1,.468,11.218,3.309,3.309,0,0,1-.68,1.563,1.074,1.074,0,0,1-1.467.17,1.88,1.88,0,0,1-.415-1.212c-.33-3.3-.659-6.6-.989-9.9.319,3.477.627,7.06-.351,10.388a3.4,3.4,0,0,1-.84,1.595,1.223,1.223,0,0,1-1.584.149,2.2,2.2,0,0,1-.51-1.637c-.074-2.073-.149-4.147-.16-6.571a11.721,11.721,0,0,1-7.028,3.977,17.984,17.984,0,0,1-8.092-1.042c.234-3.86.457-7.73,1.138-13.249" transform="translate(11.286 16.565)" fill="#fbbd9a"/>
    <path id="Path_3989" data-name="Path 3989" d="M146.611,211.782c-1.489-6.88-7.656-18.033-12.685-15.726-2.882,1.329-11.186,4.1-11.186,22.3,0,24.594,3.232,56.907,11.186,62.319,4.041,2.754,48.231,5.455,48.231,5.455l3.232-15.832s-32.569-6.039-34.068-10.505c-2.116-6.305-.755-29.708-4.71-48.008" transform="translate(7.768 12.389)" fill="#eb4a2a"/>
    <path id="Path_3990" data-name="Path 3990" d="M141.57,207.278c5.465,18.48,6.614,49.921,7.422,51.814.734,1.723,4.891,2.446,8.155,3.562" transform="translate(8.96 13.119)" fill="none" stroke="#b82621" stroke-linecap="round" stroke-miterlimit="10" stroke-width="1"/>
    <path id="Path_3991" data-name="Path 3991" d="M148.711,279.261c-6.061-.606-13.589-1.786-15.269-3.041-1.978-1.478-4.391-8.708-6.093-13.642" transform="translate(8.06 16.619)" fill="none" stroke="#b82621" stroke-linecap="round" stroke-miterlimit="10" stroke-width="1"/>
    <path id="Path_3992" data-name="Path 3992" d="M146.61,236.789c2.18-2.733,3.073-7.262,3.254-12.781" transform="translate(9.279 14.178)" fill="none" stroke="#b82621" stroke-linecap="round" stroke-miterlimit="10" stroke-width="1"/>
    <rect id="Rectangle_434" data-name="Rectangle 434" width="78.333" height="7.092" transform="translate(317.254 407.727)" fill="#326894"/>
    <path id="Path_3993" data-name="Path 3993" d="M312.215,321.941a4.654,4.654,0,0,1-.043.542l-1.212,9.772-10.835,87.094a4.265,4.265,0,0,1-8.5-.51,4.655,4.655,0,0,1,.043-.542l10.7-86.052,1.34-10.824a4.27,4.27,0,0,1,8.506.521" transform="translate(18.457 20.106)" fill="#4d8ab3"/>
    <path id="Path_3994" data-name="Path 3994" d="M311.575,321.941a4.661,4.661,0,0,1-.042.542l-1.212,9.772H301.74l1.34-10.824a4.265,4.265,0,0,1,8.5.51" transform="translate(19.097 20.107)" fill="#326894"/>
    <path id="Path_3995" data-name="Path 3995" d="M340.726,321.251v97.61a4.253,4.253,0,1,1-8.506,0v-97.61A4.252,4.252,0,0,1,336.473,317a4.247,4.247,0,0,1,4.253,4.253" transform="translate(21.026 20.063)" fill="#4d8ab3"/>
    <path id="Path_3996" data-name="Path 3996" d="M339.483,318.242a4.217,4.217,0,0,1,1.244,3.009V332.3H332.21V321.251a4.263,4.263,0,0,1,7.273-3.009" transform="translate(21.026 20.063)" fill="#326894"/>
    <path id="Path_3997" data-name="Path 3997" d="M381.715,418.827a4.259,4.259,0,0,1-8.485.532l-10.835-87.094-1.212-9.772a4.655,4.655,0,0,1-.043-.542,4.265,4.265,0,0,1,8.5-.51l1.34,10.824,10.7,86.052a2.755,2.755,0,0,1,.043.51" transform="translate(22.857 20.108)" fill="#4d8ab3"/>
    <path id="Path_3998" data-name="Path 3998" d="M370.985,332.255H362.4l-1.212-9.772a4.654,4.654,0,0,1-.043-.542,4.265,4.265,0,0,1,8.5-.51Z" transform="translate(22.857 20.107)" fill="#326894"/>
    <path id="Path_3999" data-name="Path 3999" d="M393.637,311.013v2.839a8.98,8.98,0,0,1-8.985,8.985H304.225a8.98,8.98,0,0,1-8.985-8.985v-2.839a8.98,8.98,0,0,1,8.985-8.985h80.427a8.974,8.974,0,0,1,8.985,8.985" transform="translate(18.686 19.115)" fill="#994403"/>
    <path id="Path_4000" data-name="Path 4000" d="M393.194,311.013v2.839a8.98,8.98,0,0,1-8.985,8.985H311.215a8.98,8.98,0,0,1-8.985-8.985v-2.839a8.98,8.98,0,0,1,8.985-8.985H384.21a8.974,8.974,0,0,1,8.985,8.985" transform="translate(19.128 19.115)" fill="#852e03"/>
    <path id="Path_4001" data-name="Path 4001" d="M289.925,190.794c1.616-2.648.043-6.093.553-9.155a3.617,3.617,0,0,1,1.17-2.254,1.847,1.847,0,0,1,2.371-.011c.755.734.5,1.967.489,3.02-.021,1.893.883,3.647,1.276,5.5.957,4.487-1.425,8.177-3.7,12.047a22.154,22.154,0,0,1-9.112,3.6c-1.51.149-9.24-4.115-12.26-13.28-1.521-4.593-1.34-6.5-.829-7.124a1.65,1.65,0,0,1,2.159-.436,2.437,2.437,0,0,1,.734,1.233c.968,2.754,1.925,5.508,2.871,8.368a17.708,17.708,0,0,1-5.518-13.77c.053-.978.351-2.158,1.287-2.446a1.761,1.761,0,0,1,1.712.532,5.357,5.357,0,0,1,.989,1.595c1.34,2.9,2.69,5.795,4.572,9.24a13.4,13.4,0,0,1-3.658-12.919c.2-.766.659-1.659,1.457-1.669s1.287.883,1.574,1.648q2.042,5.471,4.083,10.952a15.506,15.506,0,0,1-2.3-10.335c.17-1.3.829-2.86,2.148-2.913a2.169,2.169,0,0,1,1.829,1.116,7.241,7.241,0,0,1,.734,2.116c1.021,4.168,2.871,8.124,5.37,15.343" transform="translate(17.058 10.9)" fill="#fdbd9b"/>
    <path id="Path_4002" data-name="Path 4002" d="M270.63,182.174c1.212-.33,2.063.1,2.531,1.85.659,2.477,2.414,8.219,4.221,9.5" transform="translate(17.128 11.523)" fill="none" stroke="#b0514a" stroke-linecap="round" stroke-miterlimit="10" stroke-width="0.5"/>
    <path id="Path_4003" data-name="Path 4003" d="M291.848,196.158l4.455,10.388-11.781,7.135-5.242-13.865Z" transform="translate(17.676 12.415)" fill="#fdbd9b"/>
    <path id="Path_4004" data-name="Path 4004" d="M291.724,185.193c-.851-4.753-4.434-8.23-8.528-8.666l-.064-.33s-2.137.383-2.85.542c-4.657,1.042-7.539,6.263-6.582,11.664s5.476,9.293,10.208,8.666c.723-.1,2.86-.478,2.86-.478l-.064-.33c3.7-1.808,5.869-6.305,5.019-11.069" transform="translate(17.311 11.152)" fill="#316382"/>
    <path id="Path_4005" data-name="Path 4005" d="M282.833,176.236c4.972-.887,9.817,2.963,10.823,8.6s-2.211,10.925-7.183,11.812-9.817-2.964-10.823-8.6,2.211-10.925,7.183-11.812" transform="translate(17.434 11.146)" fill="#407c91"/>
    <path id="Path_4006" data-name="Path 4006" d="M291.444,185.067c-.776-4.328-4.508-7.294-8.336-6.614a1.367,1.367,0,0,0-.2.043c-3.711.776-6.093,4.785-5.327,9.038s4.37,7.2,8.134,6.646a1.326,1.326,0,0,0,.2-.032c3.817-.67,6.305-4.742,5.529-9.081" transform="translate(17.559 11.288)" fill="#ebf5ff"/>
    <path id="Path_4007" data-name="Path 4007" d="M328.135,193.876l-7.252-5.518a19.361,19.361,0,0,0-7.252,8.283c-2.52,5.6-5.859,24.307-5.859,24.307l-13.546-22.5L276.97,210.7s19.139,48.443,30.665,49.028,19.639-10.091,19.639-10.091Z" transform="translate(17.529 11.921)" fill="#fff"/>
    <path id="Path_4008" data-name="Path 4008" d="M271.33,390.493l2.2,13.876,9.081,3.69,10.431-4.987L291.15,389.4Z" transform="translate(17.173 24.645)" fill="#fbbd9a"/>
    <path id="Path_4009" data-name="Path 4009" d="M300.1,420.652l-47.072-.681a11.968,11.968,0,0,1-.447-2.392A8.477,8.477,0,0,1,255.5,409.9c3.955-3.073,10.239-3.5,14.322-5.083a9.1,9.1,0,0,0,3.924-3.36l6.7.383s.553,3.732,3.041,3.509,10.707-4.253,10.707-4.253c4.253,7.273,5.5,13.142,5.837,16.481a16.887,16.887,0,0,1,.074,3.073" transform="translate(15.983 25.386)" fill="#502202"/>
    <path id="Path_4010" data-name="Path 4010" d="M300.1,419.671l-47.072-.681a11.969,11.969,0,0,1-.447-2.392h47.433a16.452,16.452,0,0,1,.085,3.073" transform="translate(15.986 26.367)" fill="#855321"/>
    <path id="Path_4011" data-name="Path 4011" d="M324.27,390.493l2.2,13.876,9.081,3.69,10.431-4.987L344.09,389.4Z" transform="translate(20.523 24.645)" fill="#fbbd9a"/>
    <path id="Path_4012" data-name="Path 4012" d="M353.041,420.652l-47.072-.681a11.97,11.97,0,0,1-.447-2.392,8.477,8.477,0,0,1,2.913-7.677c3.955-3.073,10.239-3.5,14.323-5.083a9.1,9.1,0,0,0,3.924-3.36l6.7.383s.553,3.732,3.041,3.509,10.707-4.253,10.707-4.253c4.253,7.273,5.5,13.142,5.837,16.481a16.886,16.886,0,0,1,.074,3.073" transform="translate(19.334 25.386)" fill="#502202"/>
    <path id="Path_4013" data-name="Path 4013" d="M353.038,419.671l-47.072-.681a11.97,11.97,0,0,1-.447-2.392h47.433a16.452,16.452,0,0,1,.085,3.073" transform="translate(19.336 26.367)" fill="#855321"/>
    <path id="Path_4014" data-name="Path 4014" d="M325.326,261.428l-7.709,12.494s-44.137,6.72-51.282,17.534c-6.592,9.974,2.339,111.071,2.339,111.071h30.314s-2.318-74.675,0-81.586,71.825-6.518,75.813-15.9,5.316-42.287,5.316-42.287" transform="translate(16.703 16.546)" fill="#112c45"/>
    <path id="Path_4015" data-name="Path 4015" d="M378.733,275.956s1.712,27.061-7.177,33.536c-7.719,5.625-27.348,7.092-27.348,7.092l3.785,84.17-28.985,1.893s-14.4-98.237-13.716-107.658,28.56-16.236,26.657-17.576c0,0-21.489-7.294-13.525-15.311.181-.181.383-.372.585-.553,1.85-1.637,24.488.053,24.488.053l20.872-1.914,8.262,9.368Z" transform="translate(19.32 16.436)" fill="#163a4a"/>
    <path id="Path_4016" data-name="Path 4016" d="M376.882,284.527c-.181,1.329-.383,2.754-.6,4.2-3.573-4.54-9.346-11.186-14.44-13.982-10.558-5.806-44.307-9.772-44.307-9.772l.128-2.882c.181-.181.383-.372.585-.553,1.85-1.637,24.488.053,24.488.053l20.872-1.914,8.262,9.368Z" transform="translate(20.097 16.435)" fill="#112c45"/>
    <path id="Path_4017" data-name="Path 4017" d="M362.221,181.8s-12.43,16.056-20.171,15.237-13.791-9.389-13.791-9.389,3.1-1.148,4.445-6.22c.787-2.924.968-7.156-.372-13.227l23.01-3.413a31.864,31.864,0,0,0,.861,7.975c.872,3.53,2.594,7.294,6.018,9.038" transform="translate(20.776 10.429)" fill="#fdbd9b"/>
    <path id="Path_4018" data-name="Path 4018" d="M332.462,181.438c.787-2.924.968-7.156-.372-13.227L355.1,164.8a31.864,31.864,0,0,0,.861,7.975,39.071,39.071,0,0,1-23.5,8.666" transform="translate(21.018 10.43)" fill="#f0997f"/>
    <path id="Path_4019" data-name="Path 4019" d="M312.212,155.485c.352-3.11,4.092-5.24,8.35-4.757s7.427,3.4,7.075,6.505-4.092,5.24-8.351,4.757-7.426-3.4-7.074-6.505" transform="translate(19.758 9.535)" fill="#f0997f"/>
    <path id="Path_4020" data-name="Path 4020" d="M320.712,156.093v-.085a1.851,1.851,0,0,0-1.85-1.85H317.83a1.851,1.851,0,0,0-1.85,1.85v.085a1.851,1.851,0,0,0,1.85,1.85h1.031a1.851,1.851,0,0,0,1.85-1.85" transform="translate(19.998 9.757)" fill="#4b8394"/>
    <rect id="Rectangle_435" data-name="Rectangle 435" width="1.552" height="4.253" transform="translate(335.978 165.807)" fill="#4b8394"/>
    <path id="Path_4021" data-name="Path 4021" d="M363.764,149.212c0-14.695-10.165-26.614-22.712-26.614s-22.712,7.847-22.712,26.614c0,14.695,5.7,27.443,19.2,28.337,12.515.819,26.221-13.631,26.221-28.337" transform="translate(20.148 7.759)" fill="#fdbd9b"/>
    <path id="Path_4022" data-name="Path 4022" d="M361.112,155.858a31.944,31.944,0,0,1-8.751-14.79,6.927,6.927,0,0,1-6.093-.925A16.9,16.9,0,0,1,332,139.324a11.888,11.888,0,0,1-10.58-.33,22.568,22.568,0,0,0-3.519,7.22q.479-7.592.978-15.194,17.975-2.536,36.109-3.53a3.944,3.944,0,0,1,2.02.245,3.9,3.9,0,0,1,1.595,2.509c2.552,8.4,3.849,17.183,2.509,25.615" transform="translate(20.12 8.067)" fill="#f0997f"/>
    <path id="Path_4023" data-name="Path 4023" d="M366.993,130.269c-.5,7.549-.989,17.289-1.489,24.743-.7,2.563-2.9,2.467-5.891,3.424a73.893,73.893,0,0,1-5.508-20.16,14.638,14.638,0,0,1-9.017-.6,19.238,19.238,0,0,1-14.046-.032,16.211,16.211,0,0,1-10.442.191c-1.223,3.711-1.818,9.346-2.137,13.3-.425-3.626-1.829-14.844-2.18-22.531-.149-3.3-.117-5.944.266-7.071,1.425-4.179,6.039-2.828,7.273-1.393a6.916,6.916,0,0,1,4.689-3.913,7.606,7.606,0,0,1,6.21,1.478,7.925,7.925,0,0,1,6.667-4.094,6.6,6.6,0,0,1,6.39,4.083,13.918,13.918,0,0,1,4.009-1.616,5.846,5.846,0,0,1,4.189.649,4.518,4.518,0,0,1,1.467,1.563,6.446,6.446,0,0,1,.819,2.392,4.241,4.241,0,0,1,5.306-.989,6.908,6.908,0,0,1,3.254,4.7,20.09,20.09,0,0,1,.17,5.869" transform="translate(20.013 7.191)" fill="#502202"/>
    <path id="Path_4024" data-name="Path 4024" d="M357.445,118.3a7.84,7.84,0,0,0-4.827-.468,7.208,7.208,0,0,0-4.849,3.722,6.626,6.626,0,0,0-6.348-4.189c-2.711.138-5.221,2.158-6.465,5.327A7.019,7.019,0,0,0,328.9,120.3a6.681,6.681,0,0,0-5.316,3.955,3.022,3.022,0,0,0-3.307-.67,5.838,5.838,0,0,0-2.658,2.339,12.884,12.884,0,0,0-1.34,2.679c-.149-3.3-.117-5.944.266-7.071,1.425-4.179,6.04-2.828,7.273-1.393a6.916,6.916,0,0,1,4.689-3.913,7.606,7.606,0,0,1,6.21,1.478,7.925,7.925,0,0,1,6.667-4.094,6.6,6.6,0,0,1,6.39,4.083,13.918,13.918,0,0,1,4.009-1.616,5.847,5.847,0,0,1,4.189.649,4.576,4.576,0,0,1,1.478,1.574" transform="translate(20.012 7.19)" fill="#6b4019"/>
    <path id="Path_4025" data-name="Path 4025" d="M327.344,146.579a7.389,7.389,0,0,0-5.774,1.053" transform="translate(20.352 9.265)" fill="none" stroke="#502202" stroke-linecap="round" stroke-miterlimit="10" stroke-width="2"/>
    <path id="Path_4026" data-name="Path 4026" d="M341.11,146.961a7,7,0,0,1,6.635.649" transform="translate(21.589 9.266)" fill="none" stroke="#502202" stroke-linecap="round" stroke-miterlimit="10" stroke-width="2"/>
    <path id="Path_4027" data-name="Path 4027" d="M332.55,154.568a44.292,44.292,0,0,0,.617,6.273" transform="translate(21.047 9.783)" fill="none" stroke="#b0514a" stroke-linecap="round" stroke-miterlimit="10" stroke-width="2"/>
    <path id="Path_4028" data-name="Path 4028" d="M335.34,166.122a9.9,9.9,0,0,0,7.007-2.594" transform="translate(21.224 10.35)" fill="none" stroke="#b0514a" stroke-linecap="round" stroke-miterlimit="10" stroke-width="2"/>
    <path id="Path_4029" data-name="Path 4029" d="M341.941,154.13c.642-.113,1.282.475,1.43,1.313a1.4,1.4,0,0,1-.9,1.724c-.641.113-1.281-.475-1.429-1.313a1.4,1.4,0,0,1,.894-1.724" transform="translate(21.583 9.754)" fill="#2d3a5e"/>
    <path id="Path_4030" data-name="Path 4030" d="M325.2,154.359c.642-.113,1.282.475,1.43,1.313a1.4,1.4,0,0,1-.9,1.724c-.641.113-1.281-.475-1.429-1.313a1.4,1.4,0,0,1,.894-1.724" transform="translate(20.523 9.769)" fill="#2d3a5e"/>
    <path id="Path_4031" data-name="Path 4031" d="M359.631,150.728c4.247-.586,8.035,1.454,8.463,4.554s-2.668,6.088-6.915,6.674-8.035-1.454-8.463-4.554,2.668-6.088,6.915-6.674" transform="translate(22.321 9.533)" fill="#fdbd9b"/>
    <path id="Path_4032" data-name="Path 4032" d="M358.99,156.093v-.085a1.851,1.851,0,0,1,1.85-1.85h1.031a1.851,1.851,0,0,1,1.85,1.85v.085a1.851,1.851,0,0,1-1.85,1.85H360.84a1.851,1.851,0,0,1-1.85-1.85" transform="translate(22.721 9.757)" fill="#4b8394"/>
    <rect id="Rectangle_436" data-name="Rectangle 436" width="1.552" height="4.253" transform="translate(384.89 165.807)" fill="#4b8394"/>
    <path id="Path_4033" data-name="Path 4033" d="M360.029,177.478s-12.6,7.613-14.79,10.346a16.478,16.478,0,0,0-2.86,6.486s-3.02-6.369-3.7-6.9-5.965-5.54-5.965-5.54l-6.2,4.7-8.3,4.317.351,79.768,56.163,3.807L376.17,187.9Z" transform="translate(20.14 11.233)" fill="#69c5c9"/>
    <path id="Path_4034" data-name="Path 4034" d="M341.21,193.748c-2.658,22.372,1.956,61.469-5.54,76.653" transform="translate(21.245 12.262)" fill="none" stroke="#3e7c8a" stroke-linecap="round" stroke-miterlimit="10" stroke-width="0.5"/>
    <path id="Path_4035" data-name="Path 4035" d="M341.9,191s.946-3.53,3.126-5.274,13.419-8.357,13.716-8.432,5.816,3.775,5.816,3.775l-8.336,11.834s-8.549-6.008-10.548-5.5c-1.914.5-3.775,3.594-3.775,3.594" transform="translate(21.639 11.221)" fill="#9bebe7"/>
    <path id="Path_4036" data-name="Path 4036" d="M340.275,190.8a12.45,12.45,0,0,0-1.786-3.892c-1.319-1.627-5.678-6.327-6.125-6.295s-4.87,2.68-5.657,4.285-.34,9.2-.34,9.2,7.464-7.1,10.378-6.295c1.935.542,3.53,3,3.53,3" transform="translate(20.648 11.431)" fill="#9bebe7"/>
    <path id="Path_4037" data-name="Path 4037" d="M362.785,179.548s-9.75,9.166-11.218,18.469-.9,58.258,8.124,74.547c7.826,14.131,8.57,59.14,8.57,80.034l27.39-9.442s-.117-37.481-8.964-72.187c-6.858-26.9-.276-76.057-4.2-80.863-2.733-3.36-19.7-10.558-19.7-10.558" transform="translate(22.211 11.364)" fill="#fff"/>
    <path id="Path_4038" data-name="Path 4038" d="M351.271,231.863S349.006,206,351.2,197.679s8.528-18.905,10.239-19.277c2.828-.606,9.155,4.3,9.155,4.3a62.446,62.446,0,0,0-6.635,22.318c-.138,1.212-10.186,4.923-10.186,4.923s7.847,5.742,7.741,6.305c-.117.585-10.24,15.62-10.24,15.62" transform="translate(22.167 11.288)" fill="#dae8f7"/>
    <path id="Path_4039" data-name="Path 4039" d="M334.934,263.888c5.878,0,10.644,2.966,10.644,6.624s-4.766,6.624-10.644,6.624-10.644-2.966-10.644-6.624,4.766-6.624,10.644-6.624" transform="translate(20.524 16.701)" fill="#407c91"/>
    <path id="Path_4040" data-name="Path 4040" d="M349.253,262.051l-10.846-1.435a5.223,5.223,0,0,0-2.892.17,3.9,3.9,0,0,0-1.893,3.424c1.808.159,3.615.308,5.444.606a35.675,35.675,0,0,1-7.975,7.921,8.757,8.757,0,0,0-1.9,1.627,2.579,2.579,0,0,0-.542,2.35,2.459,2.459,0,0,0,1.882,1.478,20.931,20.931,0,0,0,2.637.074,2.878,2.878,0,0,0,1.393,3.137,3.457,3.457,0,0,0,3.615-.468,3.849,3.849,0,0,0,2.8,1.967,8.574,8.574,0,0,0,3.434-.542,4.539,4.539,0,0,0,3.456,1.552,5.751,5.751,0,0,0,3.636-1.584,27.971,27.971,0,0,0,7.241-10.176,77.616,77.616,0,0,1-9.485-10.1" transform="translate(20.794 16.487)" fill="#fbbd9a"/>
    <path id="Path_4041" data-name="Path 4041" d="M365.83,199.7c-.266-5.136,2.339-14.8,6.039-15.811,5.763-1.563,15.556,7.092,18.129,13.982s10.346,49.113,8.166,54.866c-2.988,7.847-42.447,28.953-42.447,28.953L343.49,263.817s27.358-14.844,28.985-19.565c1.01-2.956-6.018-32.5-6.646-44.552" transform="translate(21.74 11.627)" fill="#fff"/>
    <path id="Path_4042" data-name="Path 4042" d="M378.279,190.428s-4.413,5.774-4.413,16.173,2.552,35.025,1.957,35.929-19.873,13.408-19.873,13.408" transform="translate(22.528 12.052)" fill="none" stroke="#b8c8e3" stroke-linecap="round" stroke-miterlimit="10" stroke-width="1"/>
    <path id="Path_4043" data-name="Path 4043" d="M373.447,221.085a27.031,27.031,0,0,1-5.827-11.707" transform="translate(23.267 13.252)" fill="none" stroke="#b8c8e3" stroke-linecap="round" stroke-miterlimit="10" stroke-width="1"/>
    <path id="Path_4044" data-name="Path 4044" d="M363.25,272.647c6.263-3.413,15.322-8.74,20.777-13.089" transform="translate(22.99 16.427)" fill="none" stroke="#b8c8e3" stroke-linecap="round" stroke-miterlimit="10" stroke-width="1"/>
    <path id="Path_4045" data-name="Path 4045" d="M332.489,181.258s-1.659,6.38-1.659,17.47c0,18.608-2.424,70.347-12.217,77.992-7.7,6.008-17.342,5.625-21.723,5.625,0,0,9.112-4.849,12.515-10.473,3.785-6.252,4.423-26.125,4.923-36.481.532-10.973,1.521-41.213,2.775-43.85,2.722-5.689,15.386-10.282,15.386-10.282" transform="translate(18.79 11.472)" fill="#fff"/>
    <path id="Path_4046" data-name="Path 4046" d="M328.038,233.3s2.222-17.512,2.222-29.687a108.956,108.956,0,0,1,2.244-23.01s-7.741,2.456-8.591,3.711-4.859,8.453-6.911,22.1c-.34,2.254,8.8,4.115,8.8,4.115s-7.05,5.476-7.05,6.848c.011,2.658,9.283,15.928,9.283,15.928" transform="translate(20.062 11.431)" fill="#dae8f7"/>
    <path id="Path_4047" data-name="Path 4047" d="M315.737,196.018c0,29.666-2.69,53.4-3.987,61.639" transform="translate(19.731 12.406)" fill="none" stroke="#b8c8e3" stroke-linecap="round" stroke-miterlimit="10" stroke-width="1"/>
    <path id="Path_4048" data-name="Path 4048" d="M311.54,206.018c.766,4.253,2.616,8.453,3.753,9.74" transform="translate(19.717 13.039)" fill="none" stroke="#b8c8e3" stroke-linecap="round" stroke-miterlimit="10" stroke-width="1"/>
    <path id="Path_4049" data-name="Path 4049" d="M316.68,159.881s1.457,34.227,21.978,35.535c17.321,1.106,26.933-20.181,26.933-35.588" transform="translate(20.043 10.116)" fill="none" stroke="#163649" stroke-miterlimit="10" stroke-width="1"/>
    <path id="Path_4050" data-name="Path 4050" d="M346.455,193.7s-12.621,46.126-47.635,54.462c-42.851,10.208-84.84-1.265-84.84-1.265" transform="translate(13.543 12.259)" fill="none" stroke="#163649" stroke-linecap="round" stroke-miterlimit="10" stroke-width="1"/>
    <path id="Path_4051" data-name="Path 4051" d="M289.867,194.928s4.838,27.965-16.843,42.447c-19.2,12.834-59.045,8.868-59.045,8.868" transform="translate(13.543 12.337)" fill="none" stroke="#163649" stroke-linecap="round" stroke-miterlimit="10" stroke-width="1"/>
    <path id="Path_4052" data-name="Path 4052" d="M332.027,271.618s-78.535.159-118.557-27.89" transform="translate(13.511 15.426)" fill="none" stroke="#163649" stroke-linecap="round" stroke-miterlimit="10" stroke-width="1"/>
    <path id="Path_4053" data-name="Path 4053" d="M479.6,85.932a18.229,18.229,0,0,1,34.716-8.762c3.041,6.507,2,14.131.532,21.17s-3.275,14.323-1.606,21.308c1.414,5.88,5.21,11.069,5.965,17.066a17.925,17.925,0,0,1-12.823,18.916c-4.551,1.18-10.431-.276-11.877-4.753-1.34-4.147,1.723-8.559,1.106-12.866-.521-3.615-3.466-6.295-5.891-9.017-8.932-10.059-9.059-24.551-10.122-43.063" transform="translate(30.352 4.222)" fill="#381b07"/>
    <path id="Path_4054" data-name="Path 4054" d="M406.6,186.664c-4.072-4.647-7.05-13.015-7.05-15.832,0-3.328-.532-6.741.638-9.857a24.715,24.715,0,0,1,2.456-4.508c1.053-1.648,2.095-3.3,3.147-4.944a3.326,3.326,0,0,1,1.712-1.616c1.308-.351,2.509,1.127,2.446,2.488s-.968,2.5-2.509,3.7a14.665,14.665,0,0,1,3.583-6.646,1.979,1.979,0,0,1,1.733-.829c1.074.255,1.042,1.786.755,2.85-.723,2.669-1.435,5.338-2.01,7.634,2.275,4.338,2.073,9.485,2.116,14.376s.521,10.186,3.753,13.865c-3.1,1.361-6.763-4.062-10.771-.68" transform="translate(25.28 9.404)" fill="#db8e62"/>
    <path id="Path_4055" data-name="Path 4055" d="M405.73,184.593s10.792,36.875,18.948,37.63c9.867.925,17.885-8.2,17.885-8.2L449.006,181l-14.61-8.751-8.06,26.465-11.5-13Z" transform="translate(25.679 10.902)" fill="#db8e62"/>
    <path id="Path_4056" data-name="Path 4056" d="M452.877,188.283c-8.038-3.041-16.109-6.018-24.137-9.1,2.19-10.495,5.231-23.073,7.89-27.093a17.841,17.841,0,0,1,13.015-7.9l3.668,10.856-.436,33.015v.223" transform="translate(27.135 9.126)" fill="#1d9fb3"/>
    <path id="Path_4057" data-name="Path 4057" d="M447.584,209.363l-23.5-60.746-28.815,7.475,26.667,67.636Z" transform="translate(25.017 9.406)" fill="#b23f37"/>
    <path id="Path_4058" data-name="Path 4058" d="M443.449,205.826l-21.17-54.068-23.5,6.369,23.148,59.161Z" transform="translate(25.239 9.605)" fill="#ebf5ff"/>
    <path id="Path_4059" data-name="Path 4059" d="M414.339,150.378l1.467,3.924-9.219,2.563-1.648-4.009Z" transform="translate(25.629 9.517)" fill="#678ca8"/>
    <path id="Path_4060" data-name="Path 4060" d="M431.41,413.585c.085,3.987,41.9,2.637,43.786-.649,1.223-2.148-1.031-7.549-2.754-11.048-.914-1.882-1.68-3.211-1.68-3.211l-5.316-7.443-4.243-.117c-9.41,5.433-18.788,11.345-24.445,15.971-3.339,2.743-5.38,5.019-5.348,6.5" transform="translate(27.304 24.754)" fill="#136d94"/>
    <path id="Path_4061" data-name="Path 4061" d="M436.44,407.1c8.645,5.444,28.56-2.169,35.684-5.2-.914-1.882-1.68-3.211-1.68-3.211l-5.316-7.443-4.243-.117c-9.41,5.433-18.8,11.345-24.445,15.971" transform="translate(27.622 24.755)" fill="#db8e62"/>
    <path id="Path_4062" data-name="Path 4062" d="M448.51,375.855l1.478,16.3L450.52,398l.372,4.019,16.917-1.776.138-2.839V397.4l.138-2.977.936-19.267.1-1.935-10.3,1.318Z" transform="translate(28.386 23.621)" fill="#db8e62"/>
    <path id="Path_4063" data-name="Path 4063" d="M448.51,375.776l1.478,16.3,8.464,1.053h.011l7.135.9,2.488.308.936-19.267-10.208-.617Z" transform="translate(28.386 23.699)" fill="#cf6e4a"/>
    <path id="Path_4064" data-name="Path 4064" d="M437.629,222.318s-7.273,20.117-5.837,48.72,13.493,128.35,13.493,128.35l30.049-1.414-5.146-128.764-7.252-39.873" transform="translate(27.316 14.071)" fill="#1d9fb3"/>
    <path id="Path_4065" data-name="Path 4065" d="M502.163,414.193c2.648,2.977,33.6-25.179,32.909-28.89-.457-2.424-5.678-5.072-9.261-6.614-1.914-.829-3.36-1.35-3.36-1.35l-8.879-2.212-3.307,2.658c-3.636,10.239-6.943,20.83-8.24,28.007-.776,4.232-.84,7.294.138,8.4" transform="translate(31.736 23.742)" fill="#136d94"/>
    <path id="Path_4066" data-name="Path 4066" d="M501.99,405.783c10.112-1.467,20.33-20.181,23.786-27.1-1.914-.829-3.36-1.35-3.36-1.35l-8.879-2.212-3.307,2.658c-3.636,10.239-6.943,20.819-8.24,28.007" transform="translate(31.771 23.741)" fill="#db8e62"/>
    <path id="Path_4067" data-name="Path 4067" d="M491.43,373.873l7.028,6.88,8.857,8.666,2.892,2.818,11.728-12.313-1.744-2.265-5.072-6.571L505.4,358.5Z" transform="translate(31.103 22.689)" fill="#db8e62"/>
    <path id="Path_4068" data-name="Path 4068" d="M491.43,373.873l7.028,6.88,16.662-9.665L505.4,358.5Z" transform="translate(31.103 22.689)" fill="#cf6e4a"/>
    <path id="Path_4069" data-name="Path 4069" d="M433.529,241.609c2.924,8.124,24.945,22.435,24.945,22.435s-.213,56.705.606,71,30.431,60.948,30.431,60.948l27.752-24.636s-21.51-35.971-22.988-44.424,7.826-52.909,7.826-71.007a69.871,69.871,0,0,0-.819-10.218,127.464,127.464,0,0,0-4.944-20.4c-1.776-5.476-3.275-9.07-3.275-9.07a273.591,273.591,0,0,0-30.134,6.4c-13.78,3.849-27.507,9.41-29.6,16.5a4,4,0,0,0,.2,2.477" transform="translate(27.418 13.685)" fill="#25b2c2"/>
    <path id="Path_4070" data-name="Path 4070" d="M433.529,241.228a178.776,178.776,0,0,0,22.85,11.4,34.345,34.345,0,0,1,1.659-3.924c.691,1.5,1.393,2.977,2.244,5.008,13.568-3.4,27.263-6.284,41.011-8.389a127.457,127.457,0,0,0-4.944-20.4q-16.683-1.563-33.409-2.669c-13.78,3.849-27.507,9.41-29.6,16.5a3.919,3.919,0,0,0,.191,2.477" transform="translate(27.418 14.066)" fill="#1d9fb3"/>
    <path id="Path_4071" data-name="Path 4071" d="M510.881,153.294c-1.053-6.38-25.2-14.578-33.409-13.833-17.629,1.606-30.4,4.806-34.419,7.326s-7.688,26.061-7.688,32.622c0,7.762,2.669,23,1.956,29.145-1.382,11.919-8.613,37.162-8.613,37.162l26.572,9.314,3.3-5.806,3.009,7.358L505.5,246.513s-3.36-34.972-3.36-41.107c.011-5.88,10.1-43.882,8.74-52.112" transform="translate(27.133 8.823)" fill="#27b8c1"/>
    <path id="Path_4072" data-name="Path 4072" d="M468.084,156.388c-8.825,45.966-9.314,59.13-11.324,91.422" transform="translate(28.908 9.898)" fill="none" stroke="#51dbdb" stroke-linecap="round" stroke-miterlimit="10" stroke-width="1"/>
    <path id="Path_4073" data-name="Path 4073" d="M468.6,163.558a1.478,1.478,0,1,1-1.478,1.478,1.477,1.477,0,0,1,1.478-1.478" transform="translate(29.564 10.352)" fill="#136d94"/>
    <path id="Path_4074" data-name="Path 4074" d="M465.118,182.468a1.478,1.478,0,1,1-1.478,1.478,1.478,1.478,0,0,1,1.478-1.478" transform="translate(29.344 11.548)" fill="#136d94"/>
    <path id="Path_4075" data-name="Path 4075" d="M462.438,202.4a1.478,1.478,0,1,1-1.478,1.478,1.478,1.478,0,0,1,1.478-1.478" transform="translate(29.174 12.81)" fill="#136d94"/>
    <path id="Path_4076" data-name="Path 4076" d="M461.048,225.248a1.478,1.478,0,1,1-1.478,1.478,1.478,1.478,0,0,1,1.478-1.478" transform="translate(29.086 14.256)" fill="#136d94"/>
    <path id="Path_4077" data-name="Path 4077" d="M419.21,183.953l4.4.351.34.032,29.517-7.751c2.02-1.074,2.36-2.733,1.882-4.083a3.341,3.341,0,0,0-4.264-1.871l-28.156,9.952-.287.255Z" transform="translate(26.532 10.787)" fill="#136d94"/>
    <path id="Path_4078" data-name="Path 4078" d="M419.21,183.333l1.212.1,3.19.255a2.061,2.061,0,0,1-.287-.245,1.458,1.458,0,0,1-.436-1.425c.064-.213.191-.436.106-.638a1.024,1.024,0,0,0-.191-.234,1.058,1.058,0,0,1-.17-.925l-2.52,2.3Z" transform="translate(26.532 11.406)" fill="#d68a5a"/>
    <path id="Path_4079" data-name="Path 4079" d="M419.21,183.2l1.212.1a1.181,1.181,0,0,1-.266-.479,1.2,1.2,0,0,1-.043-.436Z" transform="translate(26.532 11.543)" fill="#24151a"/>
    <path id="Path_4080" data-name="Path 4080" d="M453.62,190.526c-2.9-5.38-5.795-10.76-8.889-16.151a29.267,29.267,0,0,0-7.517-4.147,20.919,20.919,0,0,0-8.538,5.433c-.6.627-1.223,1.51-.946,2.35a1.369,1.369,0,0,0,1.435.872,4.1,4.1,0,0,0,1.669-.67c1.606-.936,3.211-1.882,5.072-2.786a13.614,13.614,0,0,1,1.435,1.35,12.165,12.165,0,0,0-3.466.4,54.667,54.667,0,0,0-6.071,3.349,2.224,2.224,0,0,0-1.223,1.521,1.413,1.413,0,0,0,.755,1.34,2.638,2.638,0,0,0,1.489.213,9.823,9.823,0,0,0,5.21-1.946,6.834,6.834,0,0,1,1.7.659,8.651,8.651,0,0,0-2.339.67,3.251,3.251,0,0,0-1.531,4.615,1.231,1.231,0,0,0-.638,1.212,3.421,3.421,0,0,0,.447,1.372,27.177,27.177,0,0,0,1.5,2.605,4.765,4.765,0,0,0,1.935,1.882,1.912,1.912,0,0,0,2.435-.925,10.853,10.853,0,0,0,10.271,5.582,32.956,32.956,0,0,0,5.806-8.8" transform="translate(26.998 10.774)" fill="#db8e62"/>
    <path id="Path_4081" data-name="Path 4081" d="M440.307,177.01a11.615,11.615,0,0,0-3.307-.7" transform="translate(27.658 11.159)" fill="none" stroke="#a8473e" stroke-linecap="round" stroke-miterlimit="10" stroke-width="0.5"/>
    <path id="Path_4082" data-name="Path 4082" d="M438.273,181.341a12.158,12.158,0,0,0-2.9.085" transform="translate(27.555 11.474)" fill="none" stroke="#a8473e" stroke-linecap="round" stroke-miterlimit="10" stroke-width="0.5"/>
    <path id="Path_4083" data-name="Path 4083" d="M431.69,186.325a10.522,10.522,0,0,1,5.6-1.074" transform="translate(27.322 11.721)" fill="none" stroke="#a8473e" stroke-linecap="round" stroke-miterlimit="10" stroke-width="0.5"/>
    <path id="Path_4084" data-name="Path 4084" d="M436.53,192.268a11.293,11.293,0,0,1-1.18-3.19" transform="translate(27.553 11.967)" fill="none" stroke="#a8473e" stroke-linecap="round" stroke-miterlimit="10" stroke-width="0.5"/>
    <path id="Path_4085" data-name="Path 4085" d="M435.784,190.708a9.6,9.6,0,0,1-1.914.149" transform="translate(27.46 12.07)" fill="none" stroke="#a8473e" stroke-linecap="round" stroke-miterlimit="10" stroke-width="0.5"/>
    <path id="Path_4086" data-name="Path 4086" d="M444.87,197.709s36.747,31.165,46.668,27.656c3.945-1.4,7.858-12.845,10.7-23.5,2.616-9.793,4.317-18.905,4.317-18.905l-20.819-8.793s-1.393,9.442-2.8,17.119c-.925,5.178-1.861,9.548-2.361,9.676-2.127.6-29.1-11.409-29.1-11.409Z" transform="translate(28.156 11.023)" fill="#db8e62"/>
    <path id="Path_4087" data-name="Path 4087" d="M480.67,191.3c4.966,3.254,12.77,8.049,19.288,10.58,2.616-9.793,4.317-18.905,4.317-18.905l-20.819-8.793s-1.382,9.442-2.786,17.119" transform="translate(30.422 11.024)" fill="#cf6e4a"/>
    <path id="Path_4088" data-name="Path 4088" d="M504.361,195.82c-9.112-1.733-16.343-3.232-25.051-6.348,1.233-10.229,4.115-28.73,6.454-34.429,1.659-4.041,8.177-11.143,15.524-8.07s10.165,7.922,9.389,20.713c-.287,4.551-4.615,18.873-6.316,28.135" transform="translate(30.336 9.254)" fill="#32c9cf"/>
    <path id="Path_4089" data-name="Path 4089" d="M461.09,145.155s2.137,9.676,6.263,12.5S487.1,143.092,487.1,143.092c-2.69-2.509-3.339-7.432-3.307-11.792a50.525,50.525,0,0,1,.776-8.272l-19.033,5.5a38.191,38.191,0,0,1-.787,10.527c-1.3,5.285-3.658,6.1-3.658,6.1" transform="translate(29.182 7.786)" fill="#db8e62"/>
    <path id="Path_4090" data-name="Path 4090" d="M464.54,139.052c8.772,1.861,15.482-3.722,19.033-7.751a50.527,50.527,0,0,1,.776-8.272l-19.033,5.5a37.818,37.818,0,0,1-.776,10.527" transform="translate(29.401 7.786)" fill="#cf6e4a"/>
    <path id="Path_4091" data-name="Path 4091" d="M467.642,157.13c-.245-.043.978-6.571,1.595-7.135s15.62-13.706,16.513-13.217c1.308.7,3.466,4.87,3.466,4.87a54.961,54.961,0,0,1-8.9,8.9c-4,3.243-10.378,6.975-12.674,6.582" transform="translate(29.595 8.656)" fill="#136d94"/>
    <path id="Path_4092" data-name="Path 4092" d="M468.139,156.958c.33-.33-.34-6.805-.723-7.4-1.244-1.967-3.349-7.092-3.349-10.58,0,0-3.785,1.435-4.253,2.265s1.595,6.975,3.179,9.9c2.69,4.923,4.881,6.082,5.146,5.816" transform="translate(29.098 8.796)" fill="#136d94"/>
    <path id="Path_4093" data-name="Path 4093" d="M443.215,113.648c.359-3.174,4.175-5.348,8.522-4.855s7.579,3.465,7.22,6.639-4.176,5.347-8.522,4.855-7.579-3.465-7.22-6.639" transform="translate(28.049 6.881)" fill="#cf6e4a"/>
    <path id="Path_4094" data-name="Path 4094" d="M495.777,107.244c0-14.992-10.367-27.146-23.159-27.146S449.46,92.251,449.46,107.244s6.39,29.9,19.352,29.368c12.77-.532,26.965-14.376,26.965-29.368" transform="translate(28.446 5.069)" fill="#db8e62"/>
    <path id="Path_4095" data-name="Path 4095" d="M490.642,113.624c-2.69-2.924-4.391-8.443-4.806-10.792a12.669,12.669,0,0,1-7.252-6.539c-3.924,3.924-18.831,6.135-23.807,4.838-3.541,4.37-3.647,6.539-4.9,12.122a61.041,61.041,0,0,1,1.053-20.468,219.354,219.354,0,0,0,27.295-10.867c1.51-.723,3.317-1.457,4.763-.606a5.622,5.622,0,0,1,1.882,2.563A32.52,32.52,0,0,0,493.225,94.5c.9.755,1.935,1.606,1.978,2.775a4.209,4.209,0,0,1-.744,2.137c-1.669,3.073-1.382,10.463-3.817,14.216" transform="translate(28.446 5.122)" fill="#cf6e4a"/>
    <path id="Path_4096" data-name="Path 4096" d="M445.76,98.594c-.074,5.678,4.551,17.47,4.551,17.47s.032-9.708,4.455-16.013c9.155,0,19.3-.425,24.913-5.635a12.43,12.43,0,0,0,7.794,7.656c-.106,5.146,2.254,9.963,3.732,14.291,2.882-1.754,5.051-1.01,7.4-3.785,1.361-5.029,2.807-12.887,2.392-17.746a24.464,24.464,0,0,0-3.53-11.154,17.3,17.3,0,0,0-1.7-2.244c-3.275-3.626-8.443-5.742-13.174-4.562a15.137,15.137,0,0,0-10.686-5.231,21.248,21.248,0,0,0-11.569,3.052c-6.858,3.9-12.217,9.942-13.972,18.342a29.2,29.2,0,0,0-.606,5.561" transform="translate(28.212 4.532)" fill="#412408"/>
    <path id="Path_4097" data-name="Path 4097" d="M445.76,98.595a22.349,22.349,0,0,1,.691-2.169,30.863,30.863,0,0,1,5.88-9.336c3.69-4.232,8.272-7.879,13.685-9.389s11.7-.553,15.737,3.349a15.606,15.606,0,0,1,15.7,2.616,17.3,17.3,0,0,0-1.7-2.244c-3.275-3.626-8.443-5.742-13.174-4.562A15.137,15.137,0,0,0,471.9,71.63a21.248,21.248,0,0,0-11.569,3.052c-6.858,3.9-12.217,9.942-13.972,18.342a30.29,30.29,0,0,0-.6,5.572" transform="translate(28.212 4.532)" fill="#664216"/>
    <path id="Path_4098" data-name="Path 4098" d="M492.072,109.034c4.238-1.085,8.317.544,9.109,3.64s-2,6.483-6.241,7.567-8.316-.543-9.108-3.639,2-6.484,6.239-7.569" transform="translate(30.74 6.88)" fill="#db8e62"/>
    <path id="Path_4099" data-name="Path 4099" d="M472.78,113.548c.558,0,1.01.724,1.01,1.616s-.452,1.616-1.01,1.616-1.01-.724-1.01-1.616.452-1.616,1.01-1.616" transform="translate(29.858 7.186)" fill="#411f00"/>
    <path id="Path_4100" data-name="Path 4100" d="M455.33,113.548c.558,0,1.01.724,1.01,1.616s-.452,1.616-1.01,1.616-1.01-.724-1.01-1.616.452-1.616,1.01-1.616" transform="translate(28.754 7.186)" fill="#411f00"/>
    <path id="Path_4101" data-name="Path 4101" d="M458.425,105.882a7.531,7.531,0,0,0-5.965.478" transform="translate(28.636 6.676)" fill="none" stroke="#412408" stroke-linecap="round" stroke-miterlimit="10" stroke-width="2"/>
    <path id="Path_4102" data-name="Path 4102" d="M471.24,106.681a7.13,7.13,0,0,1,6.763.659" transform="translate(29.825 6.716)" fill="none" stroke="#412408" stroke-linecap="round" stroke-miterlimit="10" stroke-width="2"/>
    <path id="Path_4103" data-name="Path 4103" d="M461.807,116.228a19.638,19.638,0,0,0,.021,4.54" transform="translate(29.22 7.356)" fill="none" stroke="#a8473e" stroke-linecap="round" stroke-miterlimit="10" stroke-width="2"/>
    <path id="Path_4104" data-name="Path 4104" d="M462.87,124.825c2.818,1.116,5.763.51,7.284-1.8" transform="translate(29.295 7.786)" fill="none" stroke="#a8473e" stroke-linecap="round" stroke-miterlimit="10" stroke-width="2"/>
    <path id="Path_4105" data-name="Path 4105" d="M157.772,19.748A39.012,39.012,0,1,1,118.76,58.76a39.013,39.013,0,0,1,39.012-39.012" transform="translate(7.516 1.25)" fill="#74c0d4"/>
    <path id="Path_4106" data-name="Path 4106" d="M131.543,44.449c8.538-15.907,25.423,5.444,25.423,5.444s16.917-18.246,25.423-6.39c8.836,12.3-25.423,40.958-25.423,40.958S124.28,57.984,131.543,44.449" transform="translate(8.259 2.44)" fill="#b82621"/>
    <path id="Path_4107" data-name="Path 4107" d="M128.83,62.081l11.834.128,3.679-14.4,7.581,27.369,6-33.153,6.518,29.857,3.892-21.649L172.5,61.592l12.94.351" transform="translate(8.154 2.66)" fill="none" stroke="#fff" stroke-linecap="round" stroke-miterlimit="10" stroke-width="1"/>
    <path id="Path_4108" data-name="Path 4108" d="M259.383,76.118a39.873,39.873,0,1,1-39.873,39.873,39.873,39.873,0,0,1,39.873-39.873" transform="translate(13.893 4.818)" fill="#74c0d4"/>
    <path id="Path_4109" data-name="Path 4109" d="M279.915,116.624,249.4,134.1a12.107,12.107,0,1,1-12.036-21.011l30.516-17.48A12.1,12.1,0,0,1,285.572,109.3a11.991,11.991,0,0,1-5.657,7.326" transform="translate(14.637 5.95)" fill="#fff"/>
    <path id="Path_4110" data-name="Path 4110" d="M278.645,116.624l-15.269,8.74L251.34,104.353l15.269-8.74A12.1,12.1,0,0,1,284.3,109.3a11.991,11.991,0,0,1-5.657,7.326" transform="translate(15.907 5.95)" fill="#b82621"/>
    <path id="Path_4111" data-name="Path 4111" d="M354.7,7.748A39.012,39.012,0,1,1,315.69,46.76,39.013,39.013,0,0,1,354.7,7.748" transform="translate(19.98 0.49)" fill="#74c0d4"/>
    <path id="Path_4112" data-name="Path 4112" d="M373.448,26.365V53.106a19.363,19.363,0,0,1-8.825,16.215l-11.058,6.454L343.42,69.194A19.414,19.414,0,0,1,333.67,52.4V26.365l19.756-5.657.138.043Z" transform="translate(21.118 1.311)" fill="#fff"/>
    <path id="Path_4113" data-name="Path 4113" d="M372.263,26.362V53.1a19.363,19.363,0,0,1-8.825,16.215L352.38,75.773V20.748Z" transform="translate(22.302 1.313)" fill="#f2e4e5"/>
    <rect id="Rectangle_437" data-name="Rectangle 437" width="9.176" height="30.219" transform="translate(370.089 34.438)" fill="#b82621"/>
    <rect id="Rectangle_438" data-name="Rectangle 438" width="30.219" height="9.176" transform="translate(359.563 44.962)" fill="#b82621"/>
  </g>
</svg>
